HIERARCHY
ROOT hip
{
	OFFSET 0.000000 0.000000 0.000000
	CHANNELS 6 Xposition Yposition Zposition Xrotation Zrotation Yrotation 
	JOINT abdomen
	{
		OFFSET 0.000000 3.422050 0.000000
		CHANNELS 3 Xrotation Zrotation Yrotation 
		JOINT chest
		{
			OFFSET 0.000000 8.486693 -0.6844110
			CHANNELS 3 Xrotation Zrotation Yrotation 
			JOINT neck
			{
				OFFSET 0.000000 10.26616 -0.2737640
				CHANNELS 3 Xrotation Zrotation Yrotation 
				JOINT head
				{
					OFFSET 0.000000 3.148285 0.000000
					CHANNELS 3 Xrotation Zrotation Yrotation 
					End Site
					{
						OFFSET 0.000000 3.148289 0.000000
					}
				}
			}
			JOINT lCollar
			{
				OFFSET 3.422053 6.707223 -0.8212930
				CHANNELS 3 Yrotation Zrotation Xrotation 
				JOINT lShldr
				{
					OFFSET 3.285171 0.000000 0.000000
					CHANNELS 3 Zrotation Yrotation Xrotation 
					JOINT lForeArm
					{
						OFFSET 10.12928 0.000000 0.000000
						CHANNELS 3 Yrotation Zrotation Xrotation 
						JOINT lHand
						{
							OFFSET 8.486692 0.000000 0.000000
							CHANNELS 3 Zrotation Yrotation Xrotation 
							End Site
							{
								OFFSET 4.106464 0.000000 0.000000
							}
						}
					}
				}
			}
			JOINT rCollar
			{
				OFFSET -3.558935 6.707223 -0.8212930
				CHANNELS 3 Yrotation Zrotation Xrotation 
				JOINT rShldr
				{
					OFFSET -3.148289 0.000000 0.000000
					CHANNELS 3 Zrotation Yrotation Xrotation 
					JOINT rForeArm
					{
						OFFSET -10.26616 0.000000 0.000000
						CHANNELS 3 Yrotation Zrotation Xrotation 
						JOINT rHand
						{
							OFFSET -8.349810 0.000000 0.000000
							CHANNELS 3 Zrotation Yrotation Xrotation 
							End Site
							{
								OFFSET -4.106464 0.000000 0.000000
							}
						}
					}
				}
			}
		}
	}
	JOINT lThigh
	{
		OFFSET 5.338403 -1.642589 1.368821
		CHANNELS 3 Xrotation Zrotation Yrotation 
		JOINT lShin
		{
			OFFSET -2.053232 -20.12167 0.000000
			CHANNELS 3 Xrotation Zrotation Yrotation 
			JOINT lFoot
			{
				OFFSET 0.000000 -19.30038 -1.231939
				CHANNELS 3 Xrotation Yrotation Zrotation 
				End Site
				{
					OFFSET 0.000000 -2.463878 4.653993
				}
			}
		}
	}
	JOINT rThigh
	{
		OFFSET -5.338403 -1.642589 1.368821
		CHANNELS 3 Xrotation Zrotation Yrotation 
		JOINT rShin
		{
			OFFSET 2.053232 -20.12167 0.000000
			CHANNELS 3 Xrotation Zrotation Yrotation 
			JOINT rFoot
			{
				OFFSET 0.000000 -19.30038 -1.231939
				CHANNELS 3 Xrotation Yrotation Zrotation 
				End Site
				{
					OFFSET 0.000000 -2.463878 4.653993
				}
			}
		}
	}
}
MOTION
Frames:	7
Frame Time:	0.0312500
0.000000 38.00000 0.000000 0.000000 0.000000 0.000000 0.000000 0.000000 0.000000 0.000000 0.000000 0.000000 0.000000 0.000000 0.000000 0.000000 0.000000 0.000000 0.000000 0.000000 0.000000 0.000000 0.000000 0.000000 0.000000 0.000000 0.000000 0.000000 0.000000 0.000000 0.000000 0.000000 0.000000 0.000000 0.000000 0.000000 0.000000 0.000000 0.000000 0.000000 0.000000 0.000000 0.000000 0.000000 0.000000 0.000000 0.000000 0.000000 0.000000 0.000000 0.000000 0.000000 0.000000 0.000000 0.000000 0.000000 0.000000 0.000000 0.000000 0.000000 
0.000000 18.00000 0.000000 0.000000 0.000000 0.000000 15.00000 0.000000 0.000000 -14.00000 0.000000 0.000000 4.000000 0.000000 0.000000 -15.00000 0.000000 0.000000 -10.00000 -10.00000 0.000000 0.000000 -58.00000 0.000000 -20.00000 0.000000 0.000000 0.000000 15.00000 0.000000 10.00000 10.00000 0.000000 0.000000 58.00000 0.000000 20.00000 0.000000 0.000000 0.000000 -15.00000 0.000000 -77.00000 25.00000 15.00000 140.0000 3.000000 0.000000 -20.00000 0.000000 0.000000 -77.00000 -25.00000 -15.00000 140.0000 -3.000000 0.000000 -20.00000 0.000000 0.000000 
0.000000 16.50007 -0.4999768 0.000000 0.000000 0.000000 15.00000 0.000000 0.000000 -12.00009 0.000000 0.000000 4.000000 0.000000 0.000000 -15.00000 0.000000 0.000000 -0.000463268 -10.00000 -2.499884 7.499652 -34.00111 0.000000 -20.00000 0.000000 0.000000 0.000000 15.00000 0.000000 0.000463268 10.00000 -2.499884 -7.499652 34.00111 0.000000 20.00000 0.000000 0.000000 0.000000 -15.00000 0.000000 -80.99982 25.00000 15.00000 140.0000 3.000000 0.000000 -26.99968 0.000000 0.000000 -80.99982 -25.00000 -15.00000 140.0000 -3.000000 0.000000 -26.99968 0.000000 0.000000 
0.000000 15.00000 -1.000000 0.000000 0.000000 0.000000 15.00000 0.000000 0.000000 -10.00000 0.000000 0.000000 4.000000 0.000000 0.000000 -15.00000 0.000000 0.000000 10.00000 -10.00000 -5.000000 15.00000 -10.00000 0.000000 -20.00000 0.000000 0.000000 0.000000 15.00000 0.000000 -10.00000 10.00000 -5.000000 -15.00000 10.00000 0.000000 20.00000 0.000000 0.000000 0.000000 -15.00000 0.000000 -85.00000 25.00000 15.00000 140.0000 3.000000 0.000000 -34.00000 0.000000 0.000000 -85.00000 -25.00000 -15.00000 140.0000 -3.000000 0.000000 -34.00000 0.000000 0.000000 
0.000000 15.66983 -0.9705467 0.000000 0.000000 0.000000 14.85472 -0.1452824 0.000000 -9.970943 0.1452824 0.000000 4.000000 0.000000 0.000000 -14.82566 0.000000 0.000000 10.00000 -10.00000 -5.000000 15.00000 -10.00000 0.000000 -20.00000 0.000000 0.000000 0.000000 15.00000 0.000000 -10.00000 10.00000 -5.000000 -15.00000 10.00000 0.000000 20.00000 0.000000 0.000000 0.000000 -15.00000 0.000000 -83.32542 24.33017 15.66983 138.1245 3.000000 0.000000 -33.39715 0.000000 0.000000 -85.15981 -25.00000 -15.00000 138.1840 -3.000000 0.000000 -32.70699 0.000000 0.000000 
0.000000 17.49987 -0.8900784 0.000000 0.000000 0.000000 14.42731 -0.5726867 0.000000 -9.885463 0.5726867 0.000000 4.000000 0.000000 0.000000 -14.31278 0.000000 0.000000 10.00000 -10.00000 -5.000000 15.00000 -10.00000 0.000000 -20.00000 0.000000 0.000000 0.000000 15.00000 0.000000 -10.00000 10.00000 -5.000000 -15.00000 10.00000 0.000000 20.00000 0.000000 0.000000 0.000000 -15.00000 0.000000 -78.75034 22.50013 17.49987 133.0004 3.000000 0.000000 -31.75012 0.000000 0.000000 -85.62996 -25.00000 -15.00000 132.8414 -3.000000 0.000000 -28.90309 0.000000 0.000000 
0.000000 19.99977 -0.7801552 0.000000 0.000000 0.000000 13.74262 -1.257375 0.000000 -9.748525 1.257375 0.000000 4.000000 0.000000 0.000000 -13.49115 0.000000 0.000000 10.00000 -10.00000 -5.000000 15.00000 -10.00000 0.000000 -20.00000 0.000000 0.000000 0.000000 15.00000 0.000000 -10.00000 10.00000 -5.000000 -15.00000 10.00000 0.000000 20.00000 0.000000 0.000000 0.000000 -15.00000 0.000000 -72.50058 20.00023 19.99977 126.0006 3.000000 0.000000 -29.50021 0.000000 0.000000 -86.38311 -25.00000 -15.00000 124.2828 -3.000000 0.000000 -22.80936 0.000000 0.000000 
